<svg xmlns="http://www.w3.org/2000/svg" xml:space="preserve" width="2000" height="560" data-id="lg_XbNz0W3hQirqtmI2Ya" data-version="1" viewBox="0 0 2000 560"><g data-padding="20"><g transform="translate(10 15.82)scale(.9435)"><rect width="67.972" height="136.73" x="836.582" y="-68.067" fill="none" rx="0" ry="0" transform="translate(205.8 491.18)"/><path fill="#302cff" d="M1049.468 465.738q0-10.65 7.98-16.81 7.98-6.17 19.71-6.17t19.28 5.5q7.56 5.5 7.56 13.67 0 8.16-3.57 13.18-3.56 5.01-11.36 5.01t-11.43-5.07q-3.63-5.08-3.63-12.34h9.68q0 8.35 5.44 8.35 5.2 0 5.2-8.35 0-5.08-4.66-7.98-4.65-2.9-12.09-2.9t-12.7 3.51q-5.26 3.5-5.26 9.31 0 5.8 4.78 9.79t11.73 7.44q6.95 3.44 8.04 4.05 1.09.6 4.72 2.48 3.62 1.87 4.77 2.78 1.15.9 3.75 2.84 2.6 1.93 3.57 3.39.96 1.45 2.29 3.5 2.3 3.75 2.3 9.31 0 10.16-8.4 15.18-8.41 5.02-23.28 5.02t-25.51-6.17v-16.33h8.46v9.8q8.1 3.63 17.6 3.63 9.49 0 15.11-3.39 5.62-3.38 5.62-8.71 0-4.95-5.68-9.06-4.47-3.03-16.38-8.95-11.91-5.93-17.78-11.37-5.86-5.44-5.86-14.14m170.416-408.046-.09-.446q0-.268-.088-.446l-.134-.446-.179-.357-.267-.357-.268-.356-.044-.09-54.01-53.966-.09-.09-.357-.266-.357-.223-.357-.18-.446-.177-.4-.09h-.447l-.134-.044h-171.13l-.446.09-.446.044-.357.178-.446.179-.312.223-.357.312h-.089l-53.966 54.054-.09.045-.267.356-.267.357-.179.402-.134.446-.089.356-.044.49v286.333l.044.446q0 .268.09.446l.133.446.18.357.266.357.268.356.044.045 54.011 54.01.09.09.222.178.446.312.223.134.535.179.268.089.803.089h171.04l.804-.09.223-.088a4.5 4.5 0 0 0 1.248-.625l.18-.178.088-.09 53.966-53.965.09-.09.267-.356.267-.357.18-.402.133-.446.09-.356.043-.446Zm-56.82-46.518.446-.981 46.294 46.295-.089.044-36.572 15.164-24.842-24.886Zm5.62 66.276v246.816l-13.024 13.067-13.112 13.112h-131.66l-13.112-13.112-13.068-13.068V77.45l13.068-13.068 13.112-13.112h131.66Zm-11.91-70.022L1141.61 44h-129.83L996.615 7.428Zm-166.892 2.765.758 1.784 14.406 34.788-24.842 24.93-36.572-15.163h-.09Zm-49.06 52.985 36.616 15.164V323.33l-36.616 15.164Zm49.06 328.39-46.295-46.384h.09l36.571-15.165 24.842 24.887-13.826 33.45Zm6.69 2.764 15.208-36.66h129.876l15.164 36.66Zm166.938-2.764-1.338-3.256-13.826-33.406 24.886-24.887 36.528 15.164h.09Zm49.104-53.074-36.616-15.165V78.386l36.616-15.164Z"/><rect width="106.643" height="250.86" x="817.246" y="-125.132" fill="none" rx="0" ry="0" transform="translate(205.8 199.64)"/><path fill="none" stroke="#302cff" stroke-width="3.63" d="M1076.228 272.798q-12.32 0-22.26-4.93t-15.79-12.02l5.08-21.26q4.32 8.63 12.94 15.56 8.63 6.93 20.65 6.93 10.93 0 18.1-6.93 7.16-6.93 7.16-17.1 0-7.4-3.54-12.17-3.54-4.78-8.01-7.55t-7.09-4.01l-16.95-8.62q-4-2.16-9.93-6.01t-10.4-10.63-4.47-17.57q0-10.47 4.85-18.64 4.86-8.16 13.56-12.78 8.71-4.63 19.95-4.63 11.09 0 19.57 3.93 8.47 3.93 13.25 8.09l-5.09 21.26q-3.85-6.47-11.4-12.17t-17.1-5.7q-9.24 0-14.79 5.47-5.54 5.47-5.54 13.48 0 6.16 2.85 10.17 2.85 4 6.47 6.31 3.62 2.32 5.93 3.55l17.25 8.62q3.08 1.55 7.78 4.32t9.32 7.32q4.62 4.54 7.71 11.09 3.08 6.55 3.08 15.79 0 11.86-5.63 21.11-5.62 9.24-15.33 14.48-9.7 5.24-22.18 5.24Z"/><path fill="#fff" stroke="#302cff" stroke-width="6.6" d="m953.141 3.55 8.93 33.159a33.92 33.92 0 0 0 23.917 23.919l33.16 8.93-33.16 8.93a33.92 33.92 0 0 0-23.918 23.918l-8.93 33.158-8.93-33.158a33.92 33.92 0 0 0-23.918-23.92l-33.152-8.935 33.158-8.93a33.92 33.92 0 0 0 23.92-23.918Z" paint-order="stroke"/><path fill="#fff" stroke="#302cff" stroke-width="3.9" d="m911.484 119.604 5.277 19.594a20.05 20.05 0 0 0 14.133 14.133l19.594 5.277-19.594 5.276a20.05 20.05 0 0 0-14.133 14.134l-5.277 19.594-5.277-19.594a20.05 20.05 0 0 0-14.133-14.133l-19.59-5.281 19.594-5.278a20.05 20.05 0 0 0 14.133-14.132Zm275.59 136.36 5.277 19.594a20.05 20.05 0 0 0 14.133 14.132l19.594 5.277-19.594 5.277a20.05 20.05 0 0 0-14.133 14.133l-5.277 19.594-5.277-19.594a20.05 20.05 0 0 0-14.133-14.133l-19.59-5.28 19.594-5.278a20.05 20.05 0 0 0 14.133-14.132Z" paint-order="stroke"/></g><path fill="transparent" stroke="transparent" d="M823 0h354v560H823z"/></g></svg>