<svg xmlns="http://www.w3.org/2000/svg" xml:space="preserve" width="2000" height="556" data-id="lg_ot7nqgudLHNGwlcsOR" data-version="1" viewBox="0 0 2000 556"><g data-padding="20"><g transform="matrix(.9 0 0 .9 10 27.8)"><rect width="200.333" height="556.377" x="898.694" y="-280.188" fill="none" rx="0" ry="0" transform="translate(101.14 280)"/><path fill="#c6d2ff" d="M1097.13 436.86q-31.66 0-51.45-8.41-19.78-8.41-29.43-28.44-9.65-20.04-9.65-56.15v-20.78h57.39q-21.27-7.91-33.39-19.04t-17.07-28.69q-4.95-17.57-4.95-45.27 0-34.13 8.41-53.92t28.2-28.2 54.41-8.41q90.53 0 90.53 78.17v43.53h-37.59q15.33 7.91 23.99 17.81 8.65 9.89 12.61 24.98t3.96 38.83q0 50.95-24.73 72.47-24.74 21.52-71.24 21.52m0-8.9q42.05 0 64.8-19.3 22.76-19.29 22.76-65.79 0-26.71-4.45-41.06-4.45-14.34-16.82-23t-36.11-17.56q-7.92-2.97-11.88-4.95-3.95-1.98-6.92-3.96h73.21v-34.62q0-69.26-82.12-69.26-31.16 0-48.97 7.91-17.81 7.92-25.48 25.73-7.66 17.81-7.66 47.98 0 31.66 8.9 51.45 8.91 19.79 34.63 31.66 11.38 5.44 19.04 9.4 7.67 3.96 13.11 8.41h-78.16v12.86q0 47.98 19.54 66.04t62.58 18.06m0-4.46q-40.56 0-59.11-16.81-18.55-16.82-18.55-62.83v-8.41h71.23v26.22q0 12.86 2.23 17.31 2.22 4.46 6.67 4.46 4.95 0 6.68-5.45 1.73-5.44 1.73-19.29 0-14.84-4.7-22.75-4.7-7.92-14.59-13.61t-26.22-13.11q-24.24-11.38-32.65-29.93t-8.41-49.22q0-28.69 7.18-45.51 7.17-16.82 24.24-23.99 17.06-7.17 46.74-7.17 77.67 0 77.67 64.31v30.17h-67.77v-7.42q0-9.4-.25-16.08-.25-6.67-.74-11.62-.5-9.4-7.92-9.4-3.46 0-5.93 3.96-2.48 3.95-2.48 17.81 0 14.34 4.21 21.27 4.2 6.92 12.12 10.39 7.91 3.46 18.3 7.91 20.28 7.92 31.91 16.33 11.62 8.4 16.57 22.5t4.95 39.33q0 44.03-21.77 62.33-21.76 18.3-61.34 18.3m7.92-183.03v9.4q-3.96-3.46-6.44-8.9-2.47-5.45-2.47-15.83 0-10.39 1.24-13.86 1.23-3.46 3.21-3.46 2.97 0 3.96 8.41.5 3.96.5 10.14Zm-5.45 138.51q-2.96 0-3.71-3.95-.74-3.96-.74-14.85v-28.19q4.45 4.94 6.68 11.38 2.23 6.43 2.23 16.81 0 11.38-.99 15.09t-3.47 3.71"/><rect width="26.46" height="47.46" x="985.63" y="-25.73" fill="none" rx="0" ry="0" transform="translate(101.14 290.79)"/><path fill="#111" d="M1110.57 294.42q0 3.79-2.77 5.92-2.77 2.12-7.9 2.12-9.42 0-10.94-7.38l3.81-.76q.58 2.66 2.39 3.86 1.82 1.21 4.84 1.21 3.28 0 4.98-1.28t1.7-3.63q0-1.44-.67-2.34-.67-.91-1.76-1.49t-2.46-.94-2.77-.71q-3.32-.86-4.73-1.54t-2.26-1.56q-.84-.87-1.28-2.01-.43-1.13-.43-2.65 0-3.57 2.5-5.5 2.51-1.92 7.18-1.92 4.37 0 6.68 1.52 2.31 1.53 3.21 5.15l-3.87.68q-.49-2.3-1.98-3.34-1.48-1.05-4.06-1.05-5.83 0-5.83 4.39 0 1.24.55 2.01.54.78 1.48 1.28t2.19.83l2.66.71q2.87.72 4.13 1.2 1.25.48 2.23 1.1t1.68 1.47q.7.84 1.1 1.97.4 1.14.4 2.68"/></g><path fill="transparent" stroke="transparent" d="M900 0h200v556H900z"/></g></svg>